<svg xmlns="http://www.w3.org/2000/svg" width="52" height="51" viewBox="0 0 52 51">
  <g fill="none" fill-rule="evenodd" transform="translate(1 1)">
    <path fill="#026E99" d="M38.4509494,37.8511825 C34.9319951,35.7018876 32.5319953,34.1018872 31.2509498,33.0511813 C28.8711575,31.0992899 26.7326529,29.4171259 26.8509501,27.0511817 C26.9808153,24.4538775 29.7309303,22.5397282 32.8509497,19.8511825 C34.1955734,18.6925091 36.46224,16.6925091 39.6509493,13.8511825 C44.3774852,18.7871262 46.6441517,23.1871259 46.4509489,27.0511817 C46.2577461,30.9152374 43.5910796,34.5152377 38.4509494,37.8511825 Z"/>
    <path fill="#D67000" d="M34.4509496,39.8511818 L34.0118959,40.0707092 C33.7843774,40.1844711 33.5163176,40.1832494 33.2898446,40.0674203 C29.5568115,38.1581696 26.8771801,36.4860899 25.2509502,35.0511812 C22.7336538,32.8300373 20.4509505,31.0511815 20.0509505,28.2511827 C19.6509505,23.8511819 25.7537429,19.0898034 28.85095,15.4511824 C29.6418757,14.5219972 30.8422284,12.9689532 32.4520081,10.7920504 C32.6831232,10.4795833 33.1053731,10.3783944 33.4529934,10.5522046 L35.7537056,11.7025607 C36.1488936,11.9001485 36.3090742,12.3806903 36.1114814,12.7758758 C36.0620911,12.8746564 35.9927832,12.9621409 35.9079219,13.0328203 C31.2418638,16.9190937 28.2228732,19.7252143 26.8509501,21.451182 C24.6575788,24.2105846 24.4509502,25.8511818 24.4509502,27.8511816 C24.4509502,29.8511815 25.627836,31.6782069 27.6509501,33.8511813 C28.9059392,35.1991326 31.1865565,36.9090064 34.4928021,38.9808028 C34.726676,39.1273279 34.7974601,39.4357081 34.6509152,39.6695696 C34.6021965,39.7473165 34.5330134,39.8101498 34.4509496,39.8511818 Z"/>
    <path fill="#D67000" d="M18.4509506,41.0511809 C14.1584201,40.1926748 9.36824769,38.072325 6.85095129,35.8511812 C4.33365489,33.6300373 2.45095155,29.8511815 2.05095158,27.0511817 C1.25095162,21.0511821 10.0837264,16.4217092 13.6509509,13.8511825 C15.6813,12.3881216 18.7357575,9.23998039 20.4509505,8.65118279 C23.3181033,7.66693631 26.7760258,7.79843776 30.8247182,9.04568713 L30.8247142,9.04569993 C31.2469529,9.17577575 31.4837977,9.62351513 31.3537219,10.0457538 C31.3166338,10.1661453 31.2516381,10.2760763 31.1640266,10.3665963 C27.4353891,14.2190153 25.3310303,16.4472106 24.8509502,17.0511823 C22.6575789,19.8105849 18.4509506,23.8511819 18.4509506,28.2511816 C18.4509506,30.3340958 20.5871292,33.2677094 23.2509503,35.4511812 C26.2142511,37.8801295 29.785557,39.50687 30.8509499,40.6511809 C32.8740639,42.8241552 22.7434811,41.909687 18.4509506,41.0511809 Z"/>
    <rect width="50" height="49" stroke="#FFF" stroke-width=".01"/>
  </g>
</svg>
